<svg xmlns="http://www.w3.org/2000/svg"
     width="1200" height="420" viewBox="0 0 1200 420"
     role="img" aria-labelledby="title desc">
  <title id="title">dsh-github-integration</title>
  <desc id="desc">A DeepSeek Harness workspace plugin that connects local Git changes and GitHub issues, pull requests, and repository actions.</desc>

  <rect width="1200" height="420" rx="28" fill="#10131A"/>
  <path d="M48 342H1152" stroke="#303746" stroke-width="2"/>
  <path d="M48 76H1152" stroke="#252B36" stroke-width="1"/>
  <path d="M48 76V342M1152 76V342" stroke="#252B36" stroke-width="1"/>

  <g id="title-block" transform="translate(72 58)">
    <text x="0" y="22" fill="#9AA4B2" font-family="ui-monospace, SFMono-Regular, Menlo, monospace" font-size="18" letter-spacing="2">DEEPSEEK HARNESS / PLUGIN</text>
    <text x="0" y="92" fill="#F5F7FA" font-family="-apple-system, BlinkMacSystemFont, Segoe UI, PingFang SC, sans-serif" font-size="52" font-weight="720" letter-spacing="-1.5">dsh-github-</text>
    <text x="0" y="148" fill="#8B93FF" font-family="-apple-system, BlinkMacSystemFont, Segoe UI, PingFang SC, sans-serif" font-size="52" font-weight="720" letter-spacing="-1.5">integration</text>
    <text x="0" y="198" fill="#D8DDE6" font-family="-apple-system, BlinkMacSystemFont, Segoe UI, PingFang SC, sans-serif" font-size="22">GitHub 就在你的 Workspace 里。</text>
    <text x="0" y="238" fill="#8F99A8" font-family="-apple-system, BlinkMacSystemFont, Segoe UI, PingFang SC, sans-serif" font-size="19">Issues · Pull requests · local changes</text>
    <g transform="translate(0 250)">
      <rect width="162" height="38" rx="19" fill="#202633" stroke="#3A4353"/>
      <text x="81" y="25" text-anchor="middle" fill="#D8DDE6" font-family="ui-monospace, SFMono-Regular, Menlo, monospace" font-size="16">workspace-scoped</text>
      <rect x="176" width="120" height="38" rx="19" fill="#202633" stroke="#3A4353"/>
      <text x="236" y="25" text-anchor="middle" fill="#D8DDE6" font-family="ui-monospace, SFMono-Regular, Menlo, monospace" font-size="16">TypeScript</text>
    </g>
  </g>

  <g id="project-flow" transform="translate(690 98)">
    <rect width="438" height="228" rx="22" fill="#171C25" stroke="#3A4353" stroke-width="2"/>
    <text x="28" y="35" fill="#9AA4B2" font-family="ui-monospace, SFMono-Regular, Menlo, monospace" font-size="16" letter-spacing="1.5">ONE WORKSPACE / THREE SURFACES</text>

    <g transform="translate(28 58)">
      <rect width="112" height="62" rx="12" fill="#202633" stroke="#5360D8" stroke-width="2"/>
      <circle cx="22" cy="22" r="7" fill="#8B93FF"/>
      <text x="40" y="27" fill="#F5F7FA" font-family="-apple-system, BlinkMacSystemFont, Segoe UI, sans-serif" font-size="17" font-weight="650">Workspace</text>
      <text x="16" y="49" fill="#9AA4B2" font-family="ui-monospace, SFMono-Regular, Menlo, monospace" font-size="14">origin</text>
    </g>

    <path d="M152 89H182" stroke="#8B93FF" stroke-width="3"/>
    <path d="M174 81L184 89L174 97" fill="none" stroke="#8B93FF" stroke-width="3"/>

    <g transform="translate(190 58)">
      <rect width="112" height="62" rx="12" fill="#202633" stroke="#55C7A5" stroke-width="2"/>
      <circle cx="22" cy="22" r="7" fill="#55C7A5"/>
      <text x="40" y="27" fill="#F5F7FA" font-family="-apple-system, BlinkMacSystemFont, Segoe UI, sans-serif" font-size="17" font-weight="650">Host</text>
      <text x="16" y="49" fill="#9AA4B2" font-family="ui-monospace, SFMono-Regular, Menlo, monospace" font-size="14">Git + auth</text>
    </g>

    <path d="M314 89H344" stroke="#55C7A5" stroke-width="3"/>
    <path d="M336 81L346 89L336 97" fill="none" stroke="#55C7A5" stroke-width="3"/>

    <g transform="translate(352 58)">
      <rect width="58" height="62" rx="12" fill="#202633" stroke="#F0B76B" stroke-width="2"/>
      <path d="M29 18C20 18 14 24 14 32C14 38 18 42 23 44C25 44 26 43 26 41V37H22C20 37 19 36 19 34C19 32 20 31 22 31H26V28C26 26 28 25 30 25C32 25 34 26 34 28V31H38C40 31 41 32 41 34C41 36 40 37 38 37H34V41C34 43 35 44 37 44C42 42 44 38 44 32C44 24 38 18 29 18Z" fill="#F0B76B"/>
      <text x="29" y="56" text-anchor="middle" fill="#9AA4B2" font-family="ui-monospace, SFMono-Regular, Menlo, monospace" font-size="12">API</text>
    </g>

    <g transform="translate(28 148)">
      <rect width="382" height="54" rx="12" fill="#11151D" stroke="#303746"/>
      <circle cx="24" cy="27" r="5" fill="#8B93FF"/>
      <text x="42" y="33" fill="#D8DDE6" font-family="ui-monospace, SFMono-Regular, Menlo, monospace" font-size="17">Issues</text>
      <path d="M106 18V36" stroke="#303746"/>
      <circle cx="130" cy="27" r="5" fill="#55C7A5"/>
      <text x="148" y="33" fill="#D8DDE6" font-family="ui-monospace, SFMono-Regular, Menlo, monospace" font-size="17">Pull requests</text>
      <path d="M284 18V36" stroke="#303746"/>
      <circle cx="308" cy="27" r="5" fill="#F0B76B"/>
      <text x="326" y="33" fill="#D8DDE6" font-family="ui-monospace, SFMono-Regular, Menlo, monospace" font-size="17">Changes</text>
    </g>
  </g>

  <g id="motif" transform="translate(72 365)">
    <circle cx="0" cy="0" r="4" fill="#8B93FF"/>
    <path d="M14 0H176" stroke="#3A4353"/>
    <text x="194" y="6" fill="#697384" font-family="ui-monospace, SFMono-Regular, Menlo, monospace" font-size="15">HTTPS / SSH origin · GitHub.com</text>
  </g>
</svg>
